<?xml version="1.0" encoding="utf-8"?>
<svg version="1.1" xmlns="http://www.w3.org/2000/svg" xmlns:xlink="http://www.w3.org/1999/xlink" x="0px" y="0px" viewBox="0 0 124.0111618 32.3373451" xml:space="preserve">
<style type="text/css">
	.serkologo_text_svg_2{fill:#FFFFFF;}
	.serkologo_text_svg_4{fill:#037BC0;}
</style>
<g>
	<linearGradient id="serkologo_text_svg_1" gradientUnits="userSpaceOnUse" x1="0.7104651" y1="31.6273651" x2="31.6275215" y2="0.7103085">
		<stop offset="0.08" style="stop-color:#037BC0"/>
		<stop offset="0.5" style="stop-color:#4B9AD4"/>
		<stop offset="0.92" style="stop-color:#49C7EE"/>
	</linearGradient>
	<path style="fill:url(#serkologo_text_svg_1);" d="M29.9124584,0c1.3395996,0,2.4257488,1.0861503,2.4257488,2.4253111v13.4138975H0v-0.0004253
		V2.4253111C0,1.0861503,1.085705,0,2.4253111,0H29.9124584z M0,16.4985619v13.4134712
		c0,1.3400383,1.085705,2.425312,2.4253111,2.425312h27.4871483c1.3395996,0,2.4257488-1.0852737,2.4257488-2.425312V16.4990005
		l-0.0004387-0.0004387H0z"/>
	<path class="serkologo_text_svg_2" d="M9.3347731,21.0136261c1.2115593,0.735136,3.7200556,1.6000404,5.66675,1.6000404
		c1.9893713,0,2.8115988-0.692009,2.8115988-1.7733612c0-1.0809135-0.649332-1.6009026-3.114275-2.4227066
		c-4.3689632-1.4702435-6.0560951-3.8493977-6.0129805-6.3583193c0-3.9356403,3.3742771-6.9209981,8.6081305-6.9209981
		c2.4653816,0,4.6716385,0.562665,5.9690018,1.2115588l-1.1675816,4.5418587
		c-0.9515705-0.5195646-2.7684841-1.2115726-4.5854111-1.2115726c-1.6000261,0-2.5084829,0.649332-2.5084829,1.7306852
		c0,0.9946852,0.8217897,1.5138102,3.4169397,2.4218283c4.0227337,1.3844547,5.7098789,3.4178181,5.7529926,6.5316544
		c0,3.9369431-3.1142769,6.8347702-9.1699324,6.8347702c-2.7684841,0-5.2343044-0.6057796-6.8347692-1.4706841L9.3347731,21.0136261
		z"/>
	<g>
		<path class="serkologo_text_svg_4" d="M44.468399,21.9378376c1.0234146,0.6209698,3.1430969,1.3521385,4.7865448,1.3521385
			c1.6817322,0,2.3755264-0.5845528,2.3755264-1.4987259c0-0.9132328-0.5481224-1.3521099-2.6313858-2.0459194
			c-3.6902885-1.2419128-5.1152382-3.2523537-5.0788193-5.3720217c0-3.3242502,2.8498955-5.846406,7.2722664-5.846406
			c2.0823364,0,3.9452209,0.475296,5.0414619,1.0234299l-0.9860725,3.8369064
			c-0.8039742-0.4379377-2.339119-1.0234299-3.8732948-1.0234299c-1.3521118,0-2.1196823,0.5490742-2.1196823,1.462307
			c0,0.840395,0.6947327,1.2783318,2.8872414,2.0459185c3.3980255,1.169076,4.8229752,2.8862848,4.8593941,5.5176973
			c0,3.3251915-2.6304703,5.7735405-7.7466354,5.7735405c-2.3381805,0-4.4214439-0.5126266-5.7726288-1.2428551
			L44.468399,21.9378376z"/>
		<path class="serkologo_text_svg_4" d="M63.1784058,19.6351357c0.1820908,2.302702,2.4474335,3.3980274,5.0424271,3.3980274
			c1.8993073,0,3.4344177-0.2549019,4.9322052-0.7301979l0.7311707,3.76404
			c-1.8264999,0.7302265-4.0554199,1.0962677-6.4673843,1.0962677c-6.0658264,0-9.5376053-3.5081978-9.5376053-9.098732
			c0-4.5316267,2.8144188-9.5376377,9.0259247-9.5376377c5.7725983,0,7.9660416,4.4952364,7.9660416,8.916666
			c0,0.9496517-0.1101685,1.7900467-0.1830063,2.1915665H63.1784058z M69.7186203,15.8355875
			c0-1.3521099-0.5845566-3.6174526-3.142189-3.6174526c-2.339119,0-3.2887726,2.1196966-3.4353561,3.6174526H69.7186203z"/>
		<path class="serkologo_text_svg_4" d="M76.5271835,14.8120728c0-2.6304426-0.0728378-4.3476524-0.1466141-5.881856h4.787468l0.1820984,3.2878323
			h0.1466141c0.9132309-2.594964,3.1057358-3.6902905,4.8229752-3.6902905c0.5116882,0,0.7675552,0,1.169075,0.0728369v5.2254066
			c-0.4015198-0.0728092-0.8768158-0.1465864-1.4977798-0.1465864c-2.0459213,0-3.4353638,1.0962667-3.7995529,2.8134756
			c-0.0737457,0.3651009-0.1101685,0.803978-0.1101685,1.2428551v9.0613995h-5.5541153V14.8120728z"/>
		<path class="serkologo_text_svg_4" d="M94.6051331,16.4563885h0.0728073c0.4015503-0.7301998,0.8404236-1.461339,1.2793045-2.1551476
			l3.6174545-5.3720217h6.6867676l-6.3945084,7.2349062l7.3077698,10.6329365h-6.8324738l-4.3122025-7.3441639l-1.4249191,1.7536297
			v5.5905342h-5.5541458V0.8538891h5.5541458V16.4563885z"/>
		<path class="serkologo_text_svg_4" d="M124.0111618,17.6623669c0,6.5411263-4.6408768,9.5366974-9.4274368,9.5366974
			c-5.2254333,0-9.2453461-3.4344482-9.2453461-9.2080173c0-5.7725992,3.8004837-9.46383,9.5366669-9.46383
			C120.3563538,8.5272169,124.0111618,12.2912569,124.0111618,17.6623669 M111.075531,17.8453732
			c0,3.0684071,1.2792664,5.371109,3.6538696,5.371109c2.1560822,0,3.5446167-2.156086,3.5446167-5.371109
			c0-2.6678019-1.0234299-5.3720226-3.5446167-5.3720226C112.0615997,12.4733505,111.075531,15.2139902,111.075531,17.8453732"/>
	</g>
</g>
</svg>
